<svg xmlns="http://www.w3.org/2000/svg" viewBox="0 0 64 64">
  <rect width="64" height="64" rx="14" fill="#050506"/>
  <path d="M18 20c0-4 3-7 7-7h14c4 0 7 3 7 7v4h-6v-4c0-1-1-2-2-2H26c-1 0-2 1-2 2v4h-6v-4Z" fill="#C62828"/>
  <path d="M13 31c0-4 3-7 7-7h3v26h-3c-4 0-7-3-7-7V31Z" fill="#E53935"/>
  <path d="M41 24h3c4 0 7 3 7 7v12c0 4-3 7-7 7h-3V24Z" fill="#E53935"/>
  <path d="M25 24h14v28H25z" fill="#111114"/>
  <path d="M28 29h8M28 35h8M28 41h8" stroke="#F5F5F5" stroke-width="3" stroke-linecap="round"/>
</svg>
